<svg xmlns="http://www.w3.org/2000/svg" viewBox="0 0 32 32" width="32" height="32">
  <rect width="32" height="32" rx="7.5" fill="#241e15" />
  <!-- ember: the spark of a new entry -->
  <path d="M22.5 5.2c.5 2.7 1.3 3.5 4 4-2.7.5-3.5 1.3-4 4-.5-2.7-1.3-3.5-4-4 2.7-.5 3.5-1.3 4-4Z"
        fill="#e7b25b" />
  <!-- anvil: wiki·FORGE -->
  <g fill="#dd8f3c">
    <!-- top face with a horn to the left -->
    <path d="M4 15.1c-.8.7-.3 1.9.8 1.9h13.5c.6 0 .9-.5.7-1l-.5-1.1c-.2-.5.1-1 .7-1h5.3c.7 0 1-.9.4-1.3-2.2-1.6-4.9-2.5-7.7-2.5H9.2c-.5 0-.9.5-.7 1l.5 1.2c.2.5-.1 1-.7 1-2.2 0-4.3.6-5.9 1.9l1.5-.1Z" />
    <!-- neck -->
    <rect x="12.4" y="16.6" width="6" height="2.6" />
    <!-- base -->
    <path d="M8.8 19.2h13.4c.6 0 1 .6.8 1.1l-.9 2.4c-.2.6-.7.9-1.3.9H10.2c-.6 0-1.1-.3-1.3-.9l-.9-2.4c-.2-.5.2-1.1.8-1.1Z" />
  </g>
</svg>
